<mxfile host="app.diagrams.net" modified="2023-10-15T08:59:22.193Z" agent="Mozilla/5.0 (Macintosh; Intel Mac OS X 10_15_7) AppleWebKit/537.36 (KHTML, like Gecko) Chrome/115.0.0.0 Safari/537.36" version="21.6.8" etag="ayAngVHVo4cb70zTMQbZ" type="github">
  <diagram name="ページ1" id="OVeCRVrU8e4cEiXF78ve">
    <mxGraphModel>
      <root>
        <mxCell id="0" />
        <mxCell id="1" parent="0" />
      </root>
    </mxGraphModel>
  </diagram>
</mxfile>
